<svg width="239.539307" height="324.010498" viewBox="0 0 239.539 324.01" fill="none" xmlns="http://www.w3.org/2000/svg" xmlns:xlink="http://www.w3.org/1999/xlink">
	<desc>
			Created with Pixso.
	</desc>
	<defs/>
	<path d="M10.68 40.17C10.68 41.52 16.1 13.77 21.52 11.31C27.1 7.55 51.71 0.49 105.58 2.29C141.51 1.7 201.14 2.04 210.41 6.61C212.92 7.85 211.75 9.39 205.44 11.31M219.45 11.31L212.45 11.31L205.44 11.31L198.21 11.88L188.72 12.63L176.97 13.57C148.05 15.07 85.15 17.17 64.9 13.57L47.28 12.65L44.57 12.51L41.86 12.37L27.85 11.64L21.52 11.31M64.9 13.57C87.2 9.66 140.82 4.19 176.97 13.57M176.97 13.57L159.8 12.21C131.94 11.31 77.11 10.23 80.72 13.11C84.34 16 135.4 9.96 135.4 9.96M27.85 11.64C24.69 20.7 18.45 39.09 18.81 40.17C19.17 41.25 13.54 40.62 10.68 40.17L9.71 39.96C6.28 39.23 2.53 40.15 2.07 43.63C1.38 48.88 5.95 52.97 11.18 53.86C12.67 54.12 14.16 54.37 15.65 54.61C17.01 54.83 18.36 55.05 19.72 55.27C21.08 55.48 22.43 55.7 23.78 55.9C30.43 56.92 36.95 57.84 43.35 58.66C112.02 67.44 166.53 64.99 201.83 59.96C204.17 59.63 206.43 59.28 208.61 58.93C209.68 58.75 210.74 58.57 211.77 58.39C213.49 58.1 215.14 57.79 216.74 57.49C217.66 57.31 218.57 57.13 219.45 56.95C221.19 56.6 222.84 56.25 224.42 55.89C225.65 55.61 226.83 55.33 227.96 55.05C233.91 53.59 239.27 48.2 236.92 42.55C235.85 39.99 232.91 39.27 230.14 39.27L228.49 39.27L220.36 40.17C218.59 40.53 216.63 40.9 214.48 41.27C212.01 41.7 209.3 42.13 206.35 42.56C203.67 42.95 200.81 43.33 197.76 43.7C185.32 45.23 169.86 46.59 152.12 47.33C151.22 47.37 150.32 47.41 149.41 47.44C130.28 48.17 108.6 48.18 85.24 46.94C69.78 46.11 53.57 44.74 36.89 42.67C32.85 42.17 28.78 41.63 24.69 41.04C22.73 40.76 20.78 40.47 18.81 40.17M197.76 43.7C197.16 33.75 198.03 19.58 206.35 42.56M200.02 33.41C199.87 35.06 199.66 38.73 200.02 40.17C200.38 41.59 201.93 39.04 202.7 37.53C202.72 37.49 202.72 37.44 202.69 37.4C202.61 37.28 202.41 37.39 202.47 37.53L204.09 41.07L202.74 38.16C201.83 36.2 200.77 34.31 199.57 32.5M188.72 12.63L193.24 18.53M193.24 18.53C193.69 19.88 197.85 11.62 198.21 11.88C191.34 12.7 191.44 15.75 193.24 18.53M228.49 39.27C229.94 37.47 223.07 19.88 219.45 11.31L210.41 6.61M212.45 11.31C215.84 20.93 222.16 40.17 220.36 40.17M15.65 54.61C17.46 73.4 20.62 110.97 18.81 110.97C16.85 110.67 12.94 111.15 12.94 115.48L24.91 224.68C25.34 228.59 27.74 231.9 31.01 234.08C34.49 235.51 38.59 237 43.21 238.47C47.26 239.75 51.71 241.03 56.5 242.23C60.49 243.24 64.72 244.19 69.16 245.08C72.59 245.76 76.15 246.4 79.82 246.97C84.47 247.71 89.3 248.35 94.28 248.86C98.01 249.25 101.82 249.57 105.7 249.8C110.09 250.07 114.58 250.24 119.13 250.28C125.05 250.34 131.09 250.19 137.21 249.8C140.05 249.62 142.92 249.39 145.79 249.1C150.43 248.64 155.11 248.03 159.8 247.25C163.56 246.63 167.33 245.91 171.1 245.08C174.87 244.24 178.63 243.3 182.4 242.23C187.23 240.87 192.06 239.3 196.86 237.52C199.74 236.45 202.6 235.3 205.46 234.08C206.81 233.49 208.16 232.89 209.51 232.27C214.49 230.62 214.83 224.23 215.51 219.02C219.32 189.95 224.87 145.22 226.42 125.13C226.94 118.43 226.12 110 219.45 109.17M31.01 234.08L33.35 287.79C33.59 293.15 36.3 298.14 40.95 300.81C41.69 301.23 42.44 301.65 43.21 302.07C44.93 303.02 46.74 303.96 48.64 304.89C49.67 305.4 50.72 305.9 51.8 306.4C54.24 307.54 56.81 308.65 59.48 309.73C60.37 310.09 61.28 310.44 62.19 310.79C91.53 322.03 133.29 328.64 175.62 311.76C176.67 311.34 177.73 310.9 178.78 310.45C181.64 309.23 184.51 307.9 187.37 306.45C188.12 306.07 188.87 305.68 189.63 305.29C190.71 304.72 191.8 304.13 192.88 303.52C193.91 302.95 194.93 302.36 195.95 301.76C201.49 298.49 204.83 292.58 205.33 286.17L209.51 232.27M18.81 110.97C22.04 112.26 25.32 113.46 28.63 114.58C29.54 114.88 30.45 115.18 31.36 115.48C32.6 115.88 33.84 116.26 35.08 116.64C36.32 117.02 37.56 117.38 38.8 117.73C41.76 118.57 44.74 119.35 47.73 120.08C48.79 120.33 49.84 120.58 50.9 120.82C55.53 121.88 60.21 122.8 64.9 123.61C68.66 124.26 72.43 124.82 76.2 125.32C81.17 125.97 86.15 126.5 91.11 126.92C95.04 127.25 98.96 127.51 102.86 127.71C108.34 127.98 113.77 128.13 119.13 128.16C125.26 128.21 131.3 128.1 137.21 127.88C141.03 127.74 144.8 127.54 148.5 127.3C153.46 126.98 158.29 126.59 162.97 126.13C167.32 125.7 171.55 125.22 175.62 124.7C180.36 124.1 184.89 123.43 189.18 122.74C191.03 122.44 192.84 122.13 194.6 121.82C195.21 121.71 195.81 121.6 196.41 121.49C197.17 121.35 197.92 121.21 198.67 121.07C199.43 120.93 200.18 120.78 200.92 120.64C202.16 120.39 203.37 120.15 204.54 119.9C205 119.81 205.45 119.71 205.9 119.62C206.72 119.44 207.53 119.26 208.32 119.09C208.99 118.94 209.65 118.79 210.3 118.64C212.26 118.18 214.11 117.73 215.84 117.28L217.56 115.99C217.62 115.95 217.68 115.92 217.74 115.91L220.92 115.28C221.06 115.25 221.04 115.03 220.89 115.03C220.84 115.03 220.8 115.06 220.78 115.1L220.64 115.43C220.13 116.6 221.15 117.85 222.39 117.6C223.26 117.42 223.81 116.57 223.62 115.71L223.07 113.22L222.86 112.61C222.71 112.15 222.34 111.78 221.87 111.62C221.48 111.49 221.05 111.53 220.7 111.75C219.82 112.31 218.34 113.4 219.45 113.67C220.83 114.02 220.95 113.16 219.66 113.21C219.53 113.21 219.42 113.3 219.38 113.42C219.23 113.8 218.66 113.65 218.73 113.24L219.45 109.17L224.42 55.89M18.81 110.97L16.13 113.35C15.25 114.13 14.74 115.25 14.74 116.42C14.74 117.18 15.29 117.83 16.03 117.97C17.37 118.21 18.33 116.7 17.54 115.59C17.48 115.52 17.42 115.45 17.34 115.4C16.82 115.06 16.91 114.27 17.5 114.06L18.93 113.52C19.42 113.34 19.97 113.41 20.39 113.73L20.47 113.79C20.99 114.18 20.99 114.97 20.47 115.37C20.05 115.68 19.94 116.27 20.24 116.71L20.47 117.05C20.99 117.84 22.13 117.9 22.74 117.17L23.52 116.25C23.69 116.04 23.92 115.88 24.18 115.8C24.75 115.61 25.39 115.79 25.77 116.27L25.84 116.36C26.44 117.1 26.27 118.19 25.48 118.71L24.32 119.48C23.43 120.07 22.95 121.1 23.05 122.17C26.55 157.17 32.79 225.92 31.01 234.08M215.84 117.28C213.83 155.61 208.93 232.63 205.46 234.08M196.86 237.52L204.54 119.9M189.18 122.74L182.4 242.23M175.62 124.7L171.1 245.08M162.97 126.13L159.8 247.25M148.5 127.3L145.79 249.1M137.21 127.88L137.21 249.8M119.13 128.16L119.13 250.28M102.86 127.71L105.7 249.8M91.11 126.92L94.28 248.86M76.2 125.32L79.82 246.97M64.9 123.61L69.16 245.08M50.9 120.82L56.5 242.23M35.08 116.64L43.21 238.47M23.78 83.46L19.72 55.27M43.35 58.66L41.48 62.87C40.95 64.08 39.15 63.69 39.15 62.38C39.15 61.61 38.45 61.04 37.69 61.04C35.84 61.06 33.3 60.6 31.92 58.66C30.88 57.22 30 58.95 29.34 61.42C29.1 62.33 27.53 62.33 27.38 61.4C27.25 60.6 28.24 60.14 28.76 60.76C30.15 62.44 30.51 63.12 26.04 58.66C19.9 52.53 21.98 72.64 23.78 83.46L23.78 55.9M30.11 23.94L24.69 41.04M40.5 32.96L36.89 42.67M47.28 12.65L44.12 21.23L41.86 12.37M44.12 21.23L44.57 12.51M85.24 46.94C85.39 44.83 86.14 40.35 87.95 39.27C89.33 38.44 89.57 41.58 89.47 44.46C89.44 45.36 88.32 45.71 87.75 45C87.59 44.79 87.51 44.54 87.53 44.28L87.95 39.27M149.41 47.44C149.86 44.57 151.13 39 152.57 39.72C153.59 40.23 154.07 42.57 154.27 44.64C154.39 45.97 153.43 47.1 152.12 47.33M152.57 39.72L152.12 47.33M214.48 41.27L210.41 24.84M216.74 57.49C216.3 62.77 219.38 63.31 219.45 58.01C219.45 57.66 219.45 57.31 219.45 56.95M219.45 56.95L216.74 57.49M211.77 58.39C211.77 63.14 211.68 71.83 211.32 68.58C210.96 65.33 209.36 60.79 208.61 58.93M201.83 59.96C201.83 63.43 201.56 70.11 200.47 69.03C199.39 67.95 199.12 62.87 199.12 60.46M205.9 119.62C206.35 112.53 207.52 98.7 208.61 100.15C209.69 101.59 210.19 113.07 210.3 118.64M208.61 100.15L208.32 119.09M191.44 122.24C191.44 118.18 191.71 110.43 192.79 111.87C193.88 113.31 194.45 119.1 194.6 121.82M196.41 121.49C196.71 116.18 197.49 106.1 198.21 108.26C198.94 110.43 200.32 117.41 200.92 120.64M198.21 108.26L198.67 121.07M40.95 300.81C41.71 286.83 43.21 259.6 43.21 262.49C43.21 265.37 43.21 290.08 43.21 302.07M48.64 304.89C49.24 297.37 50.53 283.32 50.9 287.29C51.26 291.26 51.65 301.68 51.8 306.4M59.48 309.73C60.08 304.8 61.29 295.31 61.29 296.76C61.29 298.2 61.89 306.72 62.19 310.79M175.62 311.76C176.22 306.31 177.43 295.76 177.43 297.21C177.43 298.65 178.33 306.64 178.78 310.45M187.37 306.45C187.82 299.92 188.72 287.38 188.72 289.54C188.72 291.71 189.33 300.94 189.63 305.29M192.88 303.52C194.21 283.83 196.86 248.96 196.86 267C196.86 285.03 196.26 297.69 195.95 301.76M28.63 114.58C28.97 109.47 29.75 99.7 30.11 101.5C30.47 103.3 31.1 111.57 31.36 115.48M38.8 117.73C39.67 113.22 41.32 105.56 40.95 110.97C40.94 111.15 40.93 111.32 40.93 111.48C40.73 115.68 47.66 109.04 47.28 113.22C46.92 117.19 47.43 119.45 47.73 120.08M40.95 116.38C42.31 116.68 45.11 117.28 45.47 117.28C45.83 117.28 45.33 114 45.03 112.34C45.03 112.33 45.02 112.32 45.02 112.3C45.02 112.08 44.73 112.02 44.64 112.22C44.19 113.2 43.67 114.48 43.67 115.03C43.67 115.75 41.26 116.23 40.05 116.38" stroke="#444A4A" stroke-opacity="1.000000" stroke-width="4.000000"/>
</svg>
