<svg width="311.897949" height="416.025146" viewBox="0 0 311.898 416.025" fill="none" xmlns="http://www.w3.org/2000/svg" xmlns:xlink="http://www.w3.org/1999/xlink">
	<desc>
			Created with Pixso.
	</desc>
	<defs/>
	<path id="Vector 27" d="M27.56 52.51C27.56 52.51 24.56 54.01 22.56 52.51C22.15 52.2 21.68 51.78 21.21 51.28C19.4 49.33 17.65 46.07 19.56 42.69C21.22 39.01 24.56 30.41 24.56 25.51C24.56 20.97 26.55 16.54 27.78 14.5C27.96 14.2 28.17 13.87 28.52 13.78C28.53 13.78 28.55 13.77 28.56 13.77C29.49 13.59 30.9 15.02 31.56 21.82C36.07 46.37 46.67 97.1 53.08 103.65C59.48 110.19 68.09 154.93 71.59 176.47M31.56 21.82C30.4 41.32 22.96 93.67 2.54 147.02C1.38 150.15 -0.26 167.39 2.54 211.25L4.05 244.59L5.55 277.94L8.46 383.95C8.51 385.92 9.71 387.66 11.52 388.43L74.59 415L296.31 387.72C298.84 387.41 300.73 385.25 300.71 382.71C300.11 305.92 301.01 159.43 309.25 153.97C317.65 148.41 293.74 67.92 280.73 28.37C279.06 24.69 276.23 15.93 278.23 10.37C280.23 4.8 112.62 10.32 28.56 13.77M21.21 51.28C22.66 50.6 25.46 48.09 25.06 43.51C24.66 38.92 27.06 31.64 27.06 31.64C27.73 29.73 28.76 25.59 27.56 24.28C26.36 22.97 28.73 18 30.06 15.69M71.59 176.47L74.59 415M2.54 147.02L71.59 176.47M2.54 147.02C22.22 140.06 59.87 121.65 53.08 103.65M309.25 153.97L71.59 176.47C48.27 177.16 2.12 191.73 4.05 244.59M92.5 352C87.7 377.6 95 382.5 97.5 385C104 389.5 121.5 389.2 131.5 356C137.55 335.9 128.13 343.24 121 348.26C116.49 351.44 112.9 353.69 114.72 347.5C115.74 344.02 118.47 337.87 123.7 327.73C125.42 324.41 123.04 320.6 119.42 321.53C109.21 324.16 96.19 332.29 92.5 352ZM281 205.5C285.61 180.92 279.06 175.42 276.32 172.81C276.1 172.6 275.88 172.41 275.62 172.25C268.85 168.02 251.81 168.91 242 201.5C235.94 221.59 245.37 214.25 252.5 209.23C255.55 207.08 258 206.1 259 206.38C259.5 206 258.03 213.78 249.8 229.74C248.09 233.06 250.45 236.89 254.07 235.96C264.28 233.34 277.3 225.21 281 205.5ZM275.62 172.25C260.5 181 258 206.1 259 206.38M97.5 385C97.31 374.16 111.5 361 114.72 347.5M213.5 348.26C208.7 322.66 216 317.76 218.5 315.26C225 310.76 242.5 311.06 252.5 344.26C258.55 364.36 249.13 357.02 242 352C237.78 349.03 234.37 346.86 235.43 351.66C235.51 351.99 235.6 352.36 235.72 352.76C236.74 356.24 239.47 362.39 244.7 372.53C246.41 375.85 244.04 379.66 240.43 378.73C230.22 376.11 217.19 367.97 213.5 348.26ZM218.5 315.26C218.32 325.8 231.73 338.55 235.43 351.66M235.43 351.66C235.54 352.03 235.63 352.39 235.72 352.76M153.72 226.46C158.33 251.04 151.78 256.54 149.04 259.15C148.82 259.35 148.6 259.54 148.35 259.7C141.57 263.94 124.53 263.04 114.72 230.46C108.67 210.36 118.09 217.7 125.22 222.73C129.43 225.7 132.85 227.86 131.78 223.07C131.68 222.7 131.59 222.33 131.5 221.96C130.48 218.48 127.75 212.33 122.52 202.19C120.8 198.87 123.17 195.07 126.79 196C137 198.62 150.02 206.75 153.72 226.46ZM114.72 230.46C110.51 216.3 107.03 189.6 126.79 196M242 352C250.3 357.18 262.46 368.56 244.7 372.53M252.5 344.26C258.78 364.41 265.17 399.5 240.43 378.73M9 138L14.5 124.5M31.5 45.5C30.43 55 27.65 74.89 25.06 78.5M55.5 115.5C59.5 132.42 67.5 167.32 67.5 171.5M5 152C4.5 160.33 3.8 178.6 5 185M9.5 243.5L11 277.94M12 379C11.5 385.5 11.5 385.5 23.5 389.5M12 373L11 345M16.5 367L16.5 376M8.5 162.5C8.16 169 7.8 182.4 9 184M34.5 53.5C33.33 62.33 30.5 80 28.5 80M7 142C7.83 142.33 10.7 141.3 15.5 134.5" stroke="#444A4A" stroke-opacity="1.000000" stroke-width="2.000000"/>
	<path id="Coffee" d="M77.56 77.18Q77.1 81.45 78.25 85.14Q78.57 87.86 79.25 90.93Q79.93 94 81.06 97.02Q82.19 100.04 83.81 102.64Q85.43 105.25 87.63 107.15Q88.35 107.77 89.14 108.29Q90.77 109.36 92.67 109.99Q95.51 110.93 99.14 110.5Q100.12 110.39 100.92 110.26Q101.72 110.13 102.47 109.9Q103.22 109.67 104.02 109.26Q104.82 108.85 105.88 108.22Q111.51 104.87 115 101.81Q118.5 98.74 120.35 96.12Q122.2 93.49 122.77 91.41Q123.34 89.32 123.15 87.72Q123.08 87.09 122.73 86.81Q122.38 86.53 121.75 86.61Q121.61 86.62 121.47 86.67Q121.34 86.73 121.27 86.73Q119.59 89.9 118.24 92.26Q116.88 94.61 115.56 96.32Q114.24 98.04 112.8 99.3Q111.35 100.57 109.54 101.71Q107.73 102.84 105.42 104Q103.11 105.15 100.1 106.57L98.56 106.75Q95.7 107.09 93.46 106.15Q92.54 105.76 91.72 105.23Q90.53 104.47 89.53 103.42Q87.83 101.64 86.56 99.21Q85.52 97.22 84.77 95.14Q84.6 94.66 84.44 94.18Q83.61 91.59 83.06 89.07Q82.52 86.55 82.27 84.45Q81.65 79.15 82.13 75.16Q82.61 71.25 84.06 67.73Q84.08 67.67 84.11 67.6Q85.6 64.02 88.03 60.59Q90.46 57.15 93.8 53.08Q94 52.91 94.37 52.52Q94.75 52.12 95.2 51.71Q95.65 51.3 96.06 50.9Q96.47 50.5 96.67 50.33Q97.04 49.94 97.83 49.38Q98.61 48.83 99.4 48.31L101.37 47.02L103.82 46.73Q103.87 46.73 103.91 46.73Q104.28 46.76 104.6 47.35Q104.96 48.01 105.2 48.84Q105.44 49.66 105.57 50.46Q105.7 51.25 105.71 51.39Q105.74 51.6 105.85 52.3Q105.97 52.99 106.13 53.75Q106.29 54.51 106.43 55.13Q106.58 55.75 106.61 56.03Q106.66 56.45 106.9 56.66Q107.09 56.83 107.42 56.86Q108.13 56.92 108.62 56.86Q109.04 56.81 109.58 56.57Q109.78 56.48 109.89 56.32Q110.08 56.06 110.03 55.63L109.24 48.86Q109.12 47.88 108.67 46.73Q108.41 46.08 108.06 45.48Q107.79 45.03 107.46 44.6Q106.71 43.63 105.75 43.04Q105.28 42.74 104.76 42.62Q104.24 42.51 103.68 42.57Q100.07 43.77 96.44 46.33Q92.81 48.88 89.65 52.36Q86.48 55.85 83.86 60.02Q81.23 64.19 79.62 68.55Q78.01 72.92 77.56 77.18ZM157.98 125.64L158.06 126.3Q158.15 127.07 158.25 128.19Q158.35 129.31 158.67 130.3Q158.99 131.25 159.6 131.93Q159.63 131.96 159.65 131.99Q159.81 132.16 160 132.28Q160.59 132.66 161.49 132.55Q162.81 132.39 164.15 131.39Q165.48 130.38 166.37 129.5Q170.08 125.52 172.15 121.14Q172.38 120.65 172.57 120.14Q174.14 116.14 173.57 111.31Q173.32 109.14 172.93 107.91Q172.53 106.69 171.9 105.8Q171.27 104.92 170.32 104.11Q169.38 103.31 167.95 102.06Q174.25 100.18 180.28 97.28Q186.13 94.46 191.12 90.54Q191.27 90.42 191.42 90.3Q192.08 89.87 192.24 89.43Q192.4 88.99 192.33 88.43Q192.32 88.29 192.28 88.16Q192.19 87.82 191.98 87.51Q191.88 87.38 191.76 87.29Q191.48 87.11 191.05 87.16L190.7 87.2Q184.28 91.57 177.13 94.89Q174.2 96.25 171.16 97.23Q166.76 98.64 162.11 99.28L162.71 95.38Q164.61 92.89 166.22 89.73Q166.89 88.41 167.46 87.06Q168.25 85.15 168.85 83.15Q169.86 79.74 170.34 76.29Q170.82 72.83 170.44 69.62Q170.4 69.27 170.23 68.73Q170.06 68.18 169.76 67.72Q169.45 67.26 169.06 66.95Q168.86 66.79 168.63 66.73Q168.42 66.67 168.19 66.7Q167 66.84 165.94 68.06Q164.88 69.28 164.05 70.94Q163.21 72.6 162.63 74.26Q162.05 75.92 161.87 76.79L158.69 93.73Q158.45 94.04 158.26 94.91Q158.14 95.71 157.97 97.25Q157.8 98.79 157.62 101.43L157.74 123.58L157.98 125.64ZM192.83 121.54L192.91 122.2Q193 122.97 193.1 124.09Q193.19 125.21 193.52 126.2Q193.84 127.15 194.45 127.83Q194.47 127.86 194.5 127.89Q194.66 128.06 194.84 128.18Q195.43 128.56 196.33 128.45Q197.66 128.3 198.99 127.29Q200.33 126.28 201.21 125.4Q204.92 121.43 206.99 117.04Q207.22 116.55 207.42 116.05Q208.99 112.05 208.42 107.21Q208.16 105.04 207.77 103.82Q207.38 102.59 206.75 101.71Q206.11 100.83 205.17 100.02Q204.22 99.21 202.8 97.96Q209.09 96.08 215.12 93.18Q220.96 90.37 225.94 86.46L226.07 89.34Q227.28 92.58 229.52 93.66Q229.77 93.78 230.04 93.87Q232.66 94.8 236.36 94.36Q237.55 94.22 239.23 93.74Q240.9 93.26 242.72 92.48Q244.54 91.7 246.36 90.64Q248.19 89.57 249.56 88.32Q250.93 87.06 251.72 85.58Q251.79 85.44 251.86 85.29L251.91 86.31Q253.12 89.54 255.36 90.62Q255.61 90.74 255.87 90.83Q258.5 91.76 262.2 91.32Q263.38 91.19 265.06 90.7Q266.74 90.22 268.56 89.44Q270.38 88.66 272.2 87.6Q274.02 86.54 275.4 85.28Q276.77 84.02 277.55 82.55Q278.11 81.5 278.18 80.43Q278.21 79.98 278.16 79.54Q278.09 78.98 277.89 78.44Q277.81 78.23 277.66 78.12Q277.42 77.92 276.98 77.98Q276.86 77.99 276.74 78.02Q276.18 78.16 275.72 78.66Q275.15 79.25 274.67 80.02Q274.2 80.78 273.75 81.51Q273.31 82.23 273 82.62Q271.42 84.23 269.53 85.34Q268.71 85.82 267.82 86.2Q264.93 87.46 261.65 87.85Q260.53 87.98 259.57 87.99Q258.65 87.99 257.88 87.65Q257.86 87.64 257.83 87.63Q257.48 87.46 257.19 87.23Q256.82 86.94 256.54 86.54Q256.03 85.82 255.88 84.56L255.86 84.42Q255.84 84.21 255.92 83.71Q256 83.2 256.05 82.99Q258.06 80.84 259.6 78.92Q261.15 77.01 262.14 74.91Q262.31 74.56 262.45 74.21Q263.19 72.42 263.46 70.43Q263.78 68.06 263.43 65.06Q263.39 64.78 263.27 64.05Q263.15 63.32 263.12 63.04Q262.75 62.3 262.29 61.69Q262.13 61.48 261.93 61.35Q261.52 61.1 260.92 61.17Q258.47 61.46 256.96 62.74Q256.25 63.34 255.68 64.05Q255.05 64.86 254.59 65.81Q254.57 65.86 254.55 65.9Q253.74 67.66 253.38 69.64Q253.02 71.66 252.8 73.39Q252.71 73.82 252.6 75Q252.49 76.18 252.32 77.48Q252.15 78.77 251.97 79.89Q251.84 80.66 251.76 81.11Q251.52 80.97 251.14 81.01Q251.02 81.03 250.9 81.06Q250.35 81.2 249.88 81.69Q249.31 82.29 248.84 83.06Q248.36 83.82 247.91 84.54Q247.47 85.27 247.16 85.66Q245.58 87.27 243.7 88.37Q242.87 88.86 241.99 89.24Q239.09 90.5 235.81 90.89Q234.69 91.02 233.74 91.03Q232.81 91.03 232.04 90.69Q232.02 90.68 232 90.66Q231.65 90.5 231.35 90.27Q230.98 89.98 230.7 89.58Q230.19 88.86 230.04 87.6L230.03 87.46Q230 87.25 230.08 86.75Q230.17 86.24 230.21 86.03Q232.22 83.88 233.77 81.96Q235.31 80.04 236.31 77.95Q236.47 77.6 236.61 77.25Q237.35 75.45 237.62 73.47Q237.94 71.1 237.59 68.1Q237.56 67.82 237.43 67.09Q237.31 66.36 237.28 66.08Q236.91 65.34 236.45 64.72Q236.29 64.52 236.09 64.39Q235.68 64.14 235.08 64.21Q232.64 64.5 231.12 65.78Q230.41 66.38 229.84 67.09Q229.21 67.9 228.76 68.85Q228.74 68.9 228.71 68.94Q227.9 70.7 227.54 72.68Q227.18 74.7 226.96 76.43Q226.87 76.86 226.76 78.04Q226.65 79.22 226.48 80.52Q226.32 81.81 226.13 82.93Q226.12 82.99 226.11 83.05Q226.01 83.05 225.9 83.06L225.55 83.1Q219.12 87.47 211.97 90.79Q209.05 92.15 206 93.13Q201.6 94.55 196.95 95.18L197.55 91.28Q199.46 88.79 201.07 85.63Q201.74 84.32 202.3 82.96Q203.1 81.05 203.69 79.06Q204.71 75.64 205.19 72.19Q205.66 68.74 205.29 65.52Q205.24 65.17 205.07 64.63Q204.9 64.08 204.6 63.62Q204.3 63.16 203.91 62.85Q203.71 62.69 203.48 62.63Q203.27 62.57 203.03 62.6Q201.84 62.74 200.78 63.96Q199.72 65.19 198.89 66.84Q198.06 68.5 197.48 70.16Q196.89 71.82 196.71 72.69L193.54 89.63Q193.29 89.94 193.11 90.81Q192.99 91.61 192.82 93.15Q192.65 94.69 192.46 97.33L192.59 119.48L192.83 121.54ZM166.31 75.45Q166.46 74.9 166.53 74.9L166.77 74.51Q166.94 77.18 166.13 79.93Q165.32 82.68 164.27 85.21L164.22 84.8Q164.22 84.73 164.35 84.04Q164.48 83.35 164.62 82.45Q164.76 81.55 164.94 80.64Q165.12 79.73 165.26 79.15Q165.36 78.79 165.52 78.06Q165.68 77.33 165.92 76.67Q166.16 76 166.31 75.45ZM201.16 71.35Q201.31 70.81 201.38 70.8L201.61 70.42Q201.79 73.09 200.98 75.84Q200.17 78.59 199.12 81.12L199.07 80.7Q199.06 80.63 199.19 79.94Q199.33 79.25 199.47 78.35Q199.61 77.45 199.79 76.54Q199.96 75.64 200.11 75.05Q200.2 74.69 200.37 73.96Q200.53 73.23 200.77 72.57Q201.01 71.9 201.16 71.35ZM123.02 101.61Q123 102.03 123 102.1Q123.18 103.57 123.97 105.18Q124.44 106.14 125.22 106.69Q125.73 107.05 126.37 107.23Q126.58 107.21 127.21 107.17Q127.84 107.13 128.12 107.1Q129.82 106.9 131.44 106.4Q133.39 105.79 135.21 104.74Q137.51 103.41 139.35 101.61Q140.15 100.82 140.87 99.93Q141.67 98.94 142.34 97.87Q143.63 95.8 144.42 93.43Q145.04 91.57 145.25 89.68Q145.44 87.88 145.25 86.04L145.98 85.6L154.48 82.61Q154.75 82.53 154.99 82.37Q155.33 82.15 155.59 81.78Q155.85 81.39 155.92 80.98Q155.96 80.73 155.93 80.46Q155.9 80.27 155.83 80.1Q155.69 79.78 155.36 79.54Q154.9 79.21 154.46 79.22Q154.41 79.22 154.37 79.23Q153.25 79.36 152.1 79.85Q150.51 80.74 149.73 81.05Q148.95 81.35 148.26 81.47Q147.56 81.59 146.59 81.74Q145.62 81.89 143.49 82.49Q143.02 82.05 142.14 81.55Q141.27 81.05 140.26 80.6Q139.25 80.16 138.27 79.88Q137.28 79.61 136.65 79.68Q133.51 80.05 131.43 81.36Q130.28 82.08 129.32 83Q128.54 83.74 127.88 84.61Q126.41 86.55 125.39 89.01Q124.37 91.47 123.48 94.12L123.02 98.63L123.1 99.33Q123.12 99.47 123.09 99.86Q123.07 100.26 123.05 100.72Q123.04 101.18 123.02 101.61ZM232.29 72.08Q232.97 70.97 234.22 69.55Q234.28 71.25 234.15 72.57Q234.02 73.9 233.6 75.08Q233.17 76.26 232.42 77.41Q231.67 78.56 230.47 79.77Q230.62 78.05 230.78 76.75Q230.95 75.46 231.28 74.32Q231.6 73.19 232.29 72.08ZM258.13 69.04Q258.81 67.94 260.06 66.51Q260.12 68.21 259.99 69.53Q259.86 70.86 259.43 72.04Q259.01 73.22 258.26 74.37Q257.51 75.52 256.3 76.73Q256.46 75.01 256.62 73.72Q256.79 72.42 257.11 71.29Q257.44 70.15 258.13 69.04ZM127.74 103.15Q127.67 103.08 127.64 102.98Q127.53 102.7 127.44 101.94L127.33 100.96Q127.24 100.19 127.19 99.2Q127.15 98.22 127.17 97.22Q127.2 96.23 127.38 95.36Q127.56 94.49 127.99 93.94L133.06 87.12L133.13 87.11Q135.23 86.86 137.51 86.98Q139.79 87.1 142.02 86.84Q142.04 86.97 142.05 87.11Q142.28 89.63 141.28 92.27Q140.79 93.56 140.13 94.74Q139.36 96.12 138.34 97.36Q137.32 98.61 136.12 99.65Q135.1 100.54 133.95 101.28Q131.45 102.88 128.94 103.18L128.24 103.26Q127.9 103.3 127.74 103.15ZM161.41 110.83Q161.44 108.06 161.46 105.86Q161.55 105.36 161.71 104.92Q161.78 104.71 161.92 104.59Q162.09 104.45 162.36 104.41L162.7 104.37Q164.59 104.79 165.99 105.26Q167.4 105.73 168.34 106.58Q169.29 107.42 169.84 108.74Q170.38 110.05 170.47 112.03Q170.59 113.64 169.97 116.19Q169.35 118.74 168.23 121.25Q167.11 123.75 165.52 125.6Q164.05 127.32 162.32 127.63Q162.18 127.66 162.05 127.67Q161.75 125.16 161.62 122.27Q161.5 119.38 161.44 116.49Q161.38 113.59 161.41 110.83ZM196.26 106.73Q196.29 103.96 196.31 101.77Q196.39 101.26 196.55 100.82Q196.63 100.61 196.77 100.49Q196.94 100.35 197.2 100.32L197.55 100.27Q199.44 100.69 200.84 101.16Q202.24 101.63 203.19 102.48Q204.14 103.32 204.68 104.64Q205.23 105.96 205.32 107.93Q205.44 109.54 204.82 112.09Q204.2 114.64 203.07 117.15Q201.95 119.65 200.37 121.5Q198.89 123.22 197.17 123.53Q197.03 123.56 196.89 123.57Q196.6 121.06 196.47 118.17Q196.34 115.28 196.28 112.39Q196.23 109.49 196.26 106.73Z" fill="#444A4A" fill-opacity="1.000000" fill-rule="evenodd"/>
	<path id="Samwyle" d="M80.8 302.18L90.58 294.03L90.91 293.99Q92.69 295.55 94.69 296.91Q96.57 298.18 98.6 299.12Q98.74 299.19 98.88 299.25Q101.06 300.23 103.35 300.71Q105.63 301.18 108.08 300.89Q110.25 300.64 111.92 299.67Q113.15 298.96 114.06 297.96Q114.4 297.6 114.69 297.2Q114.86 296.96 115.02 296.71Q115.85 295.39 116.24 293.79Q116.71 291.89 116.46 289.78Q116.4 289.31 116.33 288.84Q115.97 286.61 115.17 284.45Q114.2 281.84 112.86 279.27Q111.51 276.7 109.91 274.36Q108.31 272.01 106.79 269.82L106.7 269.06Q107.58 265.82 107.97 262.78Q108.35 259.73 107.97 256.47Q107.84 255.33 107.46 253.97Q107.16 252.91 106.66 251.96Q106.52 251.69 106.36 251.43Q105.69 250.32 104.72 249.6Q104.66 249.56 104.59 249.52Q104.36 249.35 104.1 249.23Q103.22 248.82 102.08 248.96Q100.66 249.12 99.71 249.87Q99.31 250.18 98.98 250.54Q98.49 251.05 98.13 251.68Q98.06 251.8 98 251.91Q97.49 252.88 97.27 254.01Q97.04 255.28 97.18 256.47Q97.34 257.88 97.65 259.31Q97.95 260.73 98.65 261.92L103.42 270.22L103.44 270.38Q103.54 271.25 103.02 272.39Q102.49 273.52 101.74 274.66Q100.99 275.79 100.31 276.81Q99.64 277.82 99.55 278.5L95.3 284.06L94.56 283.79Q93.81 283.52 92.72 283.15Q91.63 282.79 90.31 282.34Q88.99 281.88 87.79 281.5Q86.59 281.12 85.76 280.91Q84.94 280.71 84.72 280.73Q83.96 280.82 83.62 281.25Q83.24 281.71 83.34 282.55Q83.39 282.98 83.45 283.22Q83.5 283.47 83.82 283.81L89 291.79Q89.01 291.85 88.76 292.1Q88.51 292.35 88.2 292.69Q87.88 293.03 87.48 293.38Q87.08 293.73 86.89 293.97Q86.48 294.29 85.39 295.08Q84.3 295.87 83.15 296.81Q81.99 297.74 80.93 298.53Q79.86 299.31 79.47 299.69Q79.12 300.01 78.91 300.39Q78.82 300.57 78.78 300.76Q78.74 300.97 78.76 301.2Q78.81 301.6 79.03 301.83Q79.17 301.98 79.39 302.07Q79.83 302.24 80.26 302.23Q80.37 302.23 80.48 302.21L80.8 302.18ZM101.62 261.48Q100.41 259.12 100.05 256.08Q99.96 255.32 100.01 254.6Q100.07 253.88 100.3 253.3Q100.35 253.18 100.42 253.06Q100.65 252.64 101.1 252.32Q101.66 251.93 102.52 251.82Q102.77 251.79 103 251.86Q103.55 252.01 103.95 252.73Q104.51 253.74 104.83 255.05Q105.15 256.36 105.31 257.5Q105.47 258.64 105.5 258.85L105.52 259.02Q105.5 259.29 105.48 259.85Q105.46 260.4 105.47 260.98Q105.49 261.55 105.46 262Q105.43 262.44 105.44 262.55Q105.4 262.66 105.35 263.22Q105.31 263.78 105.22 264.42Q105.13 265.06 104.97 265.6Q104.81 266.15 104.56 266.34Q102.84 263.85 101.62 261.48ZM254.86 274.73Q254.82 274.75 254.78 274.77Q254.42 275.04 253.75 275.42Q253.08 275.8 252.23 276.26Q251.37 276.72 250.45 277.26Q249.52 277.82 248.64 278.3Q246.52 279.49 244.04 280.83L241.38 299.42Q241.21 300.76 240.48 302.28Q240.27 302.72 240.03 303.14Q239.44 304.18 238.69 305.13Q237.69 306.4 236.42 307.28Q236.35 307.33 236.28 307.37Q235.03 308.21 233.68 308.42Q233.57 308.43 233.47 308.45Q232.22 308.59 231.21 308.18Q230.98 308.09 230.77 307.97Q230.51 307.83 230.28 307.66Q229.41 307.06 228.74 306.17Q228.5 305.85 228.3 305.53Q227.76 304.65 227.42 303.65Q226.96 302.27 226.81 301.03Q226.5 298.41 227.08 296.01Q227.28 295.17 227.59 294.35Q227.89 293.57 228.25 292.81Q229.33 290.54 230.93 288.51Q233.06 285.81 235.8 283.56Q238.53 281.31 241.19 279.57L242.17 274.33Q241.94 274.69 241.24 275.54Q240.54 276.39 239.77 277.34Q239 278.28 238.27 279.11Q237.55 279.94 237.25 280.25Q236.66 280.87 235.82 281.68Q234.98 282.5 234 283.25Q233.01 284 231.97 284.53Q230.94 285.07 230.07 285.17Q228.9 285.31 228.47 284.81Q228.46 284.79 228.45 284.78Q228.03 284.25 227.9 283.17Q227.8 282.3 227.83 281.36Q227.84 281 227.8 280.64Q227.73 280.07 227.53 279.52L228.97 273.51Q229.4 272.97 229.74 271.88L230.42 269.71Q230.76 268.62 231.19 267.8Q231.58 267.05 232.12 266.93Q232.16 266.92 232.21 266.91Q232.66 266.86 233.04 266.99Q233.21 267.06 233.37 267.16Q233.51 267.25 233.62 267.37Q233.9 267.68 233.96 268.19Q234.03 268.73 233.94 269.16Q233.85 269.58 233.65 270.26Q233.12 271.81 232.6 273.2Q232.07 274.58 231.65 275.95Q231.52 276.4 231.4 276.86Q231.17 277.79 231.05 278.75Q230.86 280.18 231.05 281.86L231.27 281.83L231.57 281.6Q231.88 281.38 232.26 281.08Q232.64 280.79 233.04 280.47Q233.44 280.15 233.74 279.89Q235.99 278.01 237.71 275.74Q238.1 275.22 238.47 274.68Q240.44 271.78 242.33 268.69Q242.51 268.34 242.66 268.16Q242.8 267.98 242.9 267.88Q242.91 267.88 242.92 267.87Q243.01 267.79 243.16 267.77L243.65 267.71Q244.41 267.62 244.91 267.87Q245.41 268.11 245.64 269.13Q245.77 269.83 245.73 270.85Q245.69 271.64 245.59 272.41Q245.56 272.65 245.53 272.89Q245.37 273.9 245.18 274.88Q245 275.87 244.84 276.44L244.94 277.25Q245.04 277.19 245.44 277.03Q245.83 276.87 245.99 276.8Q246.31 276.71 247.71 275.99Q249.11 275.28 250.75 274.45Q252.39 273.62 253.79 272.91Q254.82 272.38 255.29 272.13Q255.3 272.02 255.32 271.9Q255.51 270.67 255.72 269.24Q255.94 267.81 256.15 266.57Q256.37 265.34 256.48 264.88Q256.51 264.66 256.72 263.89Q256.93 263.12 257.21 262.21L257.77 260.38Q258.04 259.47 258.16 259.01Q258.45 258.21 259.09 256.87Q259.73 255.52 260.6 254.29Q261.48 253.06 262.46 252.09Q263.45 251.12 264.37 251.01Q264.79 250.97 265.09 251.13Q265.14 251.16 265.19 251.19Q265.46 251.38 265.62 251.64Q265.67 251.7 265.7 251.77Q265.88 252.1 265.98 252.53Q266.09 252.96 266.13 253.29Q266.17 253.63 266.2 253.98Q266.4 256.47 266 259Q265.72 260.76 265.22 262.45Q264.9 263.54 264.49 264.6Q264.3 265.07 264.1 265.54Q263.15 267.75 261.82 269.79Q260.21 272.26 258.36 274.3Q258.32 274.47 258.3 274.97Q258.27 275.46 258.25 275.69L258.26 275.8Q258.38 276.79 258.93 277.37Q258.98 277.42 259.03 277.47Q259.35 277.75 259.72 277.95Q260.1 278.15 260.53 278.25Q261.38 278.46 262.4 278.45Q263.41 278.44 264.34 278.33Q264.83 278.27 265.72 277.67Q266.61 277.07 267.54 276.33Q268.48 275.59 269.4 274.98Q270.25 274.42 270.74 274.33L270.7 273.4Q270.77 273.06 270.91 272.19Q271.06 271.32 271.19 270.31Q271.32 269.3 271.4 268.39Q271.49 267.47 271.56 267.13Q271.73 265.79 272.01 264.21Q272.29 262.68 272.92 261.31Q272.94 261.27 272.95 261.24Q273.31 260.5 273.8 259.87Q274.24 259.31 274.79 258.85Q275.97 257.85 277.87 257.63Q278.34 257.57 278.66 257.77Q278.82 257.87 278.94 258.03Q279.3 258.51 279.58 259.08Q279.61 259.3 279.7 259.87Q279.8 260.43 279.82 260.65Q280.1 262.99 279.85 264.83Q279.64 266.37 279.07 267.77Q278.95 268.04 278.82 268.31Q278.05 269.94 276.85 271.43Q275.65 272.92 274.09 274.6Q274.05 274.76 273.99 275.16Q273.92 275.55 273.94 275.71L273.95 275.82Q274.07 276.8 274.47 277.36Q274.69 277.67 274.97 277.9Q275.2 278.08 275.47 278.2Q275.49 278.21 275.51 278.22Q276.11 278.49 276.83 278.49Q277.57 278.48 278.44 278.38Q280.99 278.08 283.25 277.1Q283.93 276.8 284.57 276.42Q286.04 275.57 287.27 274.31Q287.51 274.01 287.85 273.44Q288.2 272.88 288.57 272.29Q288.94 271.69 289.38 271.23Q289.75 270.84 290.18 270.73Q290.27 270.71 290.37 270.7Q290.71 270.66 290.9 270.81Q291.01 270.9 291.07 271.06Q291.23 271.48 291.28 271.91Q291.32 272.26 291.3 272.6Q291.24 273.44 290.81 274.25Q290.2 275.4 289.13 276.38Q288.07 277.36 286.65 278.18Q285.23 279.01 283.82 279.62Q282.4 280.22 281.1 280.6Q279.79 280.97 278.87 281.08Q275.99 281.42 273.95 280.7Q273.74 280.62 273.55 280.53Q271.83 279.7 270.89 277.25Q269.76 278.31 268.25 279.27Q266.71 280.25 265.28 280.97Q263.85 281.69 263.36 281.75Q261.77 282.26 260.32 282.13Q258.88 282 257.76 281.39Q257.15 281.06 256.64 280.62Q256.2 280.25 255.84 279.8Q255.06 278.85 254.76 277.77Q254.75 277.73 254.74 277.7L254.86 274.73ZM93.43 292.21Q93.09 291.92 93.08 291.87L93.06 291.65L101.82 279.55L105.4 273.02L111.46 283.81Q112.18 285.21 112.61 286.81Q113.05 288.42 113.23 289.94Q113.28 290.37 113.3 290.8Q113.34 291.78 113.21 292.78Q113.02 294.2 112.38 295.35Q112.11 295.84 111.76 296.25Q111.28 296.82 110.65 297.26Q109.56 298.02 107.93 298.21Q106.84 298.34 105.76 298.33Q104.69 298.32 103.38 297.92Q103.26 297.88 102.63 297.63Q101.99 297.37 101.29 297.07L99.9 296.46Q99.2 296.16 98.86 296.03Q98.74 295.99 98.36 295.73Q97.97 295.48 97.52 295.17Q97.07 294.87 96.63 294.61Q96.18 294.36 96 294.22Q95.64 293.99 95.16 293.6L94.22 292.86Q93.76 292.5 93.43 292.21ZM262.23 257.41Q262.77 256.54 263.26 256.49L263.32 257.08Q263.34 257.19 263.18 257.95L262.81 259.73Q262.6 260.75 262.34 261.8Q262.08 262.85 261.93 263.47Q261.84 263.65 261.54 264.37Q261.24 265.09 261.06 265.44Q260.89 265.85 260.49 266.48Q260.1 267.1 259.76 267.69Q259.41 268.28 259.13 268.73L258.85 269.17L258.58 269.21Q258.65 268.81 258.84 267.91Q259.04 267 259.26 266.01Q259.47 265.03 259.69 264.12Q259.92 263.21 260.03 262.81Q260.05 262.48 260.4 261.48Q260.75 260.47 261.23 259.37Q261.7 258.27 262.23 257.41ZM119.87 297.25L119.97 298.06Q120.28 298.76 120.82 299.11Q120.92 299.18 121.04 299.23Q121.26 299.33 121.49 299.4Q121.99 299.53 122.56 299.47Q122.88 299.43 123.2 299.36Q124.32 299.13 125.36 298.53Q126.71 297.77 127.97 296.79Q128.45 296.42 128.92 296.02Q129.67 295.39 130.36 294.69Q131.5 293.57 132.48 292.57Q132.49 293.62 132.74 294.55Q132.99 295.49 133.45 296.12Q133.53 296.24 133.63 296.34Q134.06 296.81 134.72 297.07Q135.53 297.39 136.72 297.25Q137.48 297.16 138.41 296.86Q139.34 296.56 140.28 296.12Q141.22 295.68 142.1 295.21Q142.98 294.75 143.69 294.23Q144.1 294.01 145.05 293.35Q145.99 292.69 147.06 291.96Q148.13 291.23 149.07 290.62Q149.53 290.33 149.84 290.11Q149.69 291.19 149.57 292.3Q149.45 293.55 149.44 294.93L149.47 295.14Q149.54 295.74 149.86 295.96Q150.01 296.06 150.21 296.08Q150.85 296.14 151.45 296.07Q151.61 296.05 151.94 295.98L152.26 295.92L152.68 295.32L154.7 284.4Q154.76 283.96 154.89 283.54Q155.03 283.11 155.25 282.71Q155.68 281.92 156.29 281.32Q156.36 281.25 156.43 281.19Q157 280.68 157.69 280.3Q158.13 280.06 158.6 279.93Q158.96 279.82 159.33 279.78Q159.93 279.71 160.29 279.97L160.29 279.97Q160.39 280.04 160.48 280.13Q160.71 280.34 160.87 280.64Q161.08 281.06 161.2 281.57Q161.31 282.08 161.42 282.51Q161.52 283.82 161.46 285.2Q161.4 286.58 161.31 287.94Q161.23 289.3 161.19 290.65Q161.16 292.01 161.31 293.31Q161.34 293.58 161.43 294.1Q161.48 294.37 161.64 294.48Q161.78 294.58 162.01 294.55L163.86 294.33L164.39 293.72Q164.34 292.84 164.48 291.48Q164.63 290.11 164.93 288.51Q165.24 286.9 165.74 285.27Q166.23 283.65 166.95 282.29Q167.68 280.94 168.61 280.01Q169.38 279.24 170.28 279.01Q170.48 278.96 170.69 278.94L171.53 278.84Q171.92 278.79 172.16 278.96Q172.2 278.99 172.24 279.03Q172.26 279.19 172.35 279.73Q172.44 280.27 172.46 280.44Q172.61 281.67 172.59 282.89Q172.58 283.62 172.51 284.34Q172.33 286.29 172.57 288.35Q172.58 288.46 172.67 289.03Q172.77 289.6 172.79 289.76Q173.6 291.29 174.77 291.65Q174.83 291.67 174.89 291.69Q176.14 292.01 177.87 291.8Q179.18 291.65 180.35 291.17Q180.83 290.97 181.3 290.71Q182.08 290.28 182.78 289.73Q183.48 289.18 184.1 288.51Q184.25 288.34 184.41 288.16Q185.43 286.97 186.17 285.54Q186.2 285.48 186.23 285.42Q186.07 287.07 186.27 288.78Q186.34 289.38 186.57 289.92Q186.77 290.4 187.09 290.83Q187.29 291.09 187.54 291.26Q188.18 291.69 189.19 291.57Q190.71 291.4 192.47 290.22Q194.24 289.05 195.93 287.51Q197.62 285.96 199.02 284.33Q200.43 282.71 201.28 281.56Q201.32 281.83 201.46 282.39Q201.61 282.95 201.78 283.65Q201.94 284.35 202.09 284.94Q202.25 285.52 202.33 285.73Q202.42 286.05 202.71 286.65Q203 287.25 203.42 287.81Q203.85 288.36 204.36 288.77Q204.77 289.1 205.2 289.12Q205.31 289.13 205.42 289.11Q206.17 289.03 206.88 288.83Q208.67 288.35 210.29 287.22Q211.13 286.63 211.88 285.94Q213.15 284.77 214.16 283.32Q215.01 282.1 215.65 280.77Q216.22 279.6 216.63 278.35Q217.5 275.69 217.54 273.21Q217.58 273.15 217.76 273.01Q217.94 272.88 218.05 272.87Q219.28 272.62 219.96 272.51Q220.64 272.4 221.04 272.35Q221.45 272.31 221.66 272.25Q221.88 272.2 222.22 272.08Q222.56 271.96 223.22 271.69Q223.88 271.42 225.07 270.78Q225.49 270.62 225.99 270.37Q226.48 270.12 226.88 269.82Q227.29 269.53 227.55 269.14Q227.55 269.13 227.56 269.12Q227.8 268.74 227.73 268.15Q227.7 267.82 227.52 267.58Q227.41 267.44 227.25 267.33Q227.02 267.17 226.77 267.12Q226.56 267.08 226.34 267.1L226.13 267.13Q225.96 267.15 225.92 267.21Q224.84 267.89 224.2 268.29Q223.56 268.7 223.2 268.93Q222.84 269.17 222.58 269.28Q222.32 269.4 221.91 269.44L218.73 269.82Q218.26 269.73 217.85 269.52Q217.77 269.49 217.7 269.44Q217.23 269.17 216.77 268.84Q216.32 268.5 215.85 268.26Q215.52 268.08 215.17 268.06Q215.03 268.05 214.89 268.07Q214.49 268.11 214.21 268.33Q214.01 268.49 213.87 268.74Q213.77 268.93 213.71 269.14Q213.58 269.56 213.64 270.03Q213.73 270.79 213.95 271.51Q214.17 272.23 214.27 273.04Q214.45 274.56 213.87 276.67Q213.29 278.77 212.17 280.75Q211.06 282.72 209.57 284.17Q208.09 285.61 206.46 285.8L206.11 285.84Q206.06 285.85 206.01 285.83Q205.9 285.79 205.83 285.6Q205.32 284.5 205.16 283.89Q205.01 283.27 204.89 282.24Q204.6 279.79 205.06 277.59Q205.51 275.39 206.22 272.94Q206.21 272.89 206.22 272.72Q206.23 272.56 206.22 272.5Q206.16 272.01 205.7 271.57Q205.37 271.26 204.99 271.2Q204.85 271.18 204.69 271.19L204.42 271.23Q204.31 271.24 203.89 271.4Q203.47 271.56 203.36 271.63Q202.8 273.84 201.35 276.29Q199.91 278.75 197.98 281.07Q196.05 283.39 193.88 285.32Q191.71 287.26 189.74 288.32Q189.62 288.22 189.53 287.93Q189.44 287.63 189.43 287.53Q189.41 287.36 189.4 286.76Q189.38 286.16 189.46 285.87Q189.48 285.65 189.6 285.03Q189.72 284.41 189.86 283.7Q190 283 190.12 282.38Q190.24 281.76 190.32 281.48L190.29 281.26Q190.28 281.15 190.46 280.82Q190.64 280.5 190.68 280.39L192.6 273.72L192.56 273.39Q192.48 272.7 192.09 272.33Q192.08 272.32 192.07 272.32Q192.02 272.27 191.95 272.23Q191.57 271.97 190.97 272.04Q190.91 272.04 190.85 272.06Q190.21 272.18 189.69 272.88Q189.12 273.63 188.63 274.87Q188.14 276.11 187.73 277.79Q187.33 279.42 187.07 281.28Q186.97 281.21 186.83 281.14Q186.34 280.9 185.96 280.94Q185.41 281.01 184.94 281.61Q184.46 282.22 183.92 283.08Q183.39 283.94 182.77 284.95Q182.69 285.08 182.6 285.21Q182.04 286.08 181.34 286.85Q180.91 287.33 180.42 287.75Q180 288.1 179.54 288.41Q179.44 288.48 179.33 288.54Q178.41 289.1 177.24 289.24Q176.64 289.31 176.3 289.04Q176.09 288.88 175.98 288.58Q175.7 287.82 175.61 287.06Q175.45 285.72 175.54 284.4Q175.57 283.95 175.63 283.51Q175.87 281.74 175.65 279.9L175.41 277.89Q174.86 276.96 173.73 276.27Q172.71 275.64 171.71 275.69Q171.62 275.69 171.52 275.7Q170.22 275.85 169.22 276.27Q168.58 276.54 168.01 276.92Q167.69 277.13 167.39 277.37Q166.57 278.05 165.9 278.92Q165.23 279.8 164.41 280.83Q163.59 278.51 162.24 277.56Q160.89 276.62 158.5 276.9Q156.98 277.08 155.96 277.81Q154.95 278.53 153.81 279.66Q153.27 279.28 152.84 279.11Q152.41 278.94 151.76 279.02Q151.68 278.98 151.6 278.95Q151.06 278.78 150.28 279.35Q149.39 280.01 148.61 281.04Q147.88 281.99 147.4 283.06Q147.36 283.14 147.32 283.23Q146.83 284.39 146.93 285.04Q146.97 285.26 147.09 285.39Q147.34 285.65 147.93 285.58Q148.83 285.47 150.85 283.97L150.88 284.24Q150.59 285.93 150.33 287.25Q150.26 287.59 150.2 287.92Q150.17 287.88 150.13 287.85Q150.02 287.78 149.9 287.72Q149.59 287.59 149.19 287.63Q149.14 287.64 149 287.68Q148.87 287.73 148.82 287.73L139.06 293.73Q138.54 294.01 138.03 294.1Q137.52 294.18 136.97 294.25Q136.87 294.26 136.43 294.28Q135.99 294.31 135.88 294.32Q135.81 294.22 135.67 293.71Q135.53 293.21 135.46 293.1L135.42 292.78Q135.25 291.31 135.39 289.94Q135.54 288.58 135.73 287.18Q135.92 285.78 136.06 284.41Q136.21 283.05 136.04 281.64Q135.92 280.6 135.61 279.6Q135.3 278.59 134.74 277.82Q134.47 277.46 134.14 277.18Q133.78 276.86 133.33 276.64Q132.49 276.22 131.29 276.36L130.31 276.47Q128.46 276.91 126.83 277.78Q125.63 278.41 124.56 279.27Q122.54 280.89 121.19 282.95Q120.85 283.48 120.55 284.04Q120.23 284.63 119.97 285.24Q119.01 287.47 118.77 290Q118.68 290.93 118.73 291.86Q118.84 294.14 119.77 296.38L119.87 297.25ZM275.7 263.75Q276.23 262.89 277.2 261.78Q277.25 263.1 277.15 264.13Q277.05 265.16 276.72 266.08Q276.39 267 275.8 267.9Q275.22 268.79 274.28 269.73Q274.4 268.39 274.53 267.38Q274.66 266.38 274.91 265.49Q275.17 264.61 275.7 263.75ZM88.13 285.59Q88.02 285.3 88 285.19L88.76 285.1L93.65 285.91L93.95 286.15Q93.9 286.21 93.52 286.72Q93.14 287.23 92.66 287.81Q92.18 288.39 91.74 288.91Q91.31 289.43 91.15 289.45L90.93 289.48Q90.87 289.48 90.58 289.05Q90.28 288.62 89.86 288.09Q89.44 287.56 89.01 286.95Q88.58 286.34 88.32 285.98Q88.25 285.88 88.13 285.59ZM125.45 295.52Q124.02 296.43 122.77 296.58L122.59 295.11L123.15 288.6Q123.18 288.44 123.29 288.17Q123.4 287.91 123.56 287.62Q123.72 287.33 123.86 287.12Q124 286.91 124.05 286.9Q124.29 286.6 124.93 285.75Q125.58 284.9 126.32 283.94Q127.06 282.97 127.73 282.15Q128.41 281.32 128.7 281.01Q128.8 280.95 129.15 280.9L129.62 280.85Q130.43 280.75 130.93 280.81Q131.43 280.86 132.21 281.37Q132.22 281.48 132.28 281.69Q132.33 281.91 132.34 282.02Q132.48 283.19 132.39 284.34Q132.35 284.74 132.29 285.13Q132.06 286.67 132.2 288.31Q131.66 289.36 130.61 290.73Q129.56 292.09 128.22 293.35Q126.88 294.61 125.45 295.52ZM230.06 302.24Q229.83 301.39 229.74 300.68Q229.46 298.29 230.33 295.6Q230.39 295.42 230.45 295.23Q231.31 292.74 232.78 290.47Q234.35 288.04 236.39 286.1Q236.41 286.09 236.42 286.07Q238.48 284.12 240.57 283.16L239.8 290.19L239.82 290.41Q239.84 290.57 239.73 291.49Q239.62 292.42 239.45 293.59Q239.29 294.77 239.1 295.97Q238.91 297.18 238.83 297.85Q238.61 298.81 238.21 300.07Q238.05 300.54 237.87 301.01Q237.55 301.76 237.14 302.48Q236.48 303.63 235.56 304.48Q235 305 234.35 305.25Q233.92 305.42 233.45 305.48Q232.73 305.56 232.19 305.29Q232.03 305.21 231.89 305.11Q231.25 304.63 230.78 303.86Q230.41 303.26 230.18 302.62Q230.12 302.43 230.06 302.24Z" fill="#444A4A" fill-opacity="1.000000" fill-rule="evenodd"/>
</svg>
